<?xml version="1.0" encoding="UTF-8" standalone="no"?>
<svg
   viewBox="0 0 32 32"
   fill="currentColor"
   width="32"
   height="32"
   version="1.1"
   id="svg1"
   xmlns="http://www.w3.org/2000/svg"
   xmlns:svg="http://www.w3.org/2000/svg">
  <defs
     id="defs1" />
  <path
     d="m 31,16 h -5.8825 l -3.5,-7 H 24 A 1,1 0 0 0 24,7 H 8 a 1,1 0 0 0 0,2 h 2.3825 l -3.5,7 H 1 a 1,1 0 0 0 0,2 H 5.8825 L 3.105,23.5525 A 1,1 0 0 0 3.5525,24.8937 0.9875,0.9875 0 0 0 4,25 1,1 0 0 0 4.8963,24.4475 L 8.1175,18 h 15.765 l 3.2225,6.4475 A 1,1 0 0 0 28,25 0.9875,0.9875 0 0 0 28.4463,24.8938 1,1 0 0 0 28.8938,23.5525 L 26.1175,18 H 31 a 1,1 0 0 0 0,-2 z m -21.8825,0 3.5,-7 h 6.765 l 3.5,7 z"
     id="path1"
     style="fill:#980018;fill-opacity:1" />
</svg>
