<svg xmlns="http://www.w3.org/2000/svg" width="52.742" height="47.199" viewBox="0 0 52.742 47.199"><path d="M-2734.829,2919.192c-1.167-.035-4.926-.58-11.2-5.394-7.755-5.953-10.442-10.7-10.442-10.7a13.089,13.089,0,0,0,3.138.291,43.581,43.581,0,0,0,8.488,8.229c5.221,3.812,8.328,5.111,10.409,5.111s5.189-1.3,10.41-5.111a39.71,39.71,0,0,0,8.121-7.829,16.417,16.417,0,0,0,3.505-.691s-2.687,4.746-10.441,10.7c-6.155,4.725-9.9,5.337-11.138,5.392-.157.006-.3.009-.441.009S-2734.694,2919.2-2734.829,2919.192Zm-7.238-8.859a5.736,5.736,0,0,1-.88-.063c-1.942-.3-1.993-1.594-1.993-2.04a2.015,2.015,0,0,1,2.023-1.9c1.244,0,2.143,1.35,2.505,2.23a2.672,2.672,0,0,1,.164.521c2.578-.972,2.853-4.046,2.853-5.259v-15.332c0-1.274-.708-1.946-2.529-1.946h-3.661a6.146,6.146,0,0,0-2.965-3.952c-2.134-1.054-4.883-1.384-6.8.032a2.481,2.481,0,0,0,.162,4.228c1.063.608,1.679,1.052,6.878,2.589s6.229,4.288,6.229,6.027-.789,6.42-11.327,6.372c-5.753-.026-8.935-1.881-8.935-1.881l-.653-5.34,1.618.02a11.547,11.547,0,0,0,2.719,3.777,8.274,8.274,0,0,0,5.228,1.935c1.335,0,4.987-.275,4.987-3.107,0-2.953-4.221-3.965-6.689-4.753s-7.458-2.259-7.458-6.367c0-4.309,6.452-5.844,10.073-5.844a22.7,22.7,0,0,1,8.5,1.375v3.561h14.39a10.044,10.044,0,0,1,1.226-1.56c2.508-2.633,6.757-3.382,9.881-3.382a20.073,20.073,0,0,1,7.674,1.325v5.416h-1.325a10.986,10.986,0,0,0-2-3.666,5.578,5.578,0,0,0-4.324-1.65,5.893,5.893,0,0,0-4.95,2.524c-1.074,1.625-1.7,4.049-1.7,7.324a11.425,11.425,0,0,0,2.225,6.949,6.557,6.557,0,0,0,4.724,1.974c2.1,0,4.5-1.4,6.5-3.2l.4-.369,1.049.995-.548.6a12.075,12.075,0,0,1-8.249,3.349c-4.8,0-7.773-1.574-9.373-3.124a9.985,9.985,0,0,1-2.7-7.257,12.615,12.615,0,0,1,.8-4.919h-1.341a1.853,1.853,0,0,0-1.942,1.95V2901.9c0,3.729-2.635,7.832-9.4,8.417-.195.017-.327.023-.536.023C-2741.678,2910.34-2741.841,2910.337-2742.067,2910.333Zm17.314-11.438-.071-.047Zm-12.229-12.028-.018-.021Zm6.445-.8h0Zm-23.15-4.012-.008.006.022-.017Zm-4.1-7.746s14.731-2.307,23.347-2.307,23.08,2.307,23.08,2.307l-.01,4.874a18.593,18.593,0,0,0-2.552-.37v-2.423s-12.447-1.985-20.518-1.985-20.785,1.985-20.785,1.985v2.746h0a9.574,9.574,0,0,0-2.563.97Z" transform="translate(2761 -2872)" fill="#980018"/></svg>