<svg width="1205" height="241" viewBox="0 0 1205 241" fill="none" xmlns="http://www.w3.org/2000/svg">
<path d="M318.338 109.702C317.629 106.284 318.516 104.406 320.288 104.406C322.771 104.406 322.771 106.455 323.658 110.043C325.786 117.9 336.422 135.668 360.888 135.668C377.732 135.668 394.219 126.612 394.219 108.676C394.219 75.7048 322.239 94.1558 322.239 49.5679C322.239 27.8729 341.209 17.4511 361.598 17.4511C383.05 17.4511 388.901 23.6023 391.382 23.6023C392.977 23.6023 393.333 21.7214 395.105 21.7214C396.169 21.7214 397.056 22.2361 397.233 24.1139L399.892 47.3469C400.07 48.7131 399.715 49.9111 397.942 49.9111C395.992 49.9111 394.752 46.3237 394.219 44.7859C388.901 30.0938 375.958 22.5762 360.357 22.5762C346.351 22.5762 331.459 29.0674 331.459 44.7859C331.459 76.9027 403.438 58.1085 403.438 105.261C403.438 119.61 392.977 141.133 352.733 141.133C339.614 141.133 323.48 134.813 322.771 131.737L318.338 109.702Z" fill="#8A939F"/>
<path d="M467.785 36.2419C467.785 35.0474 468.494 28.5558 466.012 28.3845H437.115C426.122 28.3845 425.768 30.9483 422.576 40.3441C422.045 42.0502 421.867 44.2712 419.562 44.2712C418.498 44.2712 417.789 43.0763 417.789 42.2218L419.739 25.6519C419.917 23.6023 419.739 18.9888 422.931 18.9888C436.759 18.9888 450.411 19.672 473.281 19.672C505.372 19.672 521.681 18.9888 525.227 18.9888C529.305 18.9888 530.191 20.0152 530.369 23.9423L531.255 37.6083C531.433 39.3177 531.61 41.367 529.305 41.367C522.745 41.367 532.319 28.3845 514.235 28.3845H488.883C480.904 28.3845 481.791 27.7013 481.791 36.7567V123.88C481.791 138.229 496.152 132.592 496.152 137.889C496.152 138.4 496.329 139.938 494.556 139.938C490.301 139.938 485.338 139.255 480.195 139.255C460.339 139.255 456.971 139.938 455.907 139.938C454.312 139.938 453.779 139.427 453.779 137.717C453.779 133.618 467.785 135.325 467.785 125.075V36.2419Z" fill="#8A939F"/>
<path d="M526.989 123.025C530.712 118.926 530.181 117.389 532.486 117.389C534.967 117.389 534.259 118.926 538.159 123.025C541.527 126.612 543.833 126.101 543.833 128.322C543.833 130.543 541.527 130.371 538.159 134.13C534.259 137.546 534.967 139.255 532.486 139.255C530.181 139.255 530.712 137.546 526.989 134.13C523.443 130.371 521.139 130.543 521.139 128.322C521.139 126.101 523.443 126.612 526.989 123.025Z" fill="#8A939F"/>
<path d="M605.522 37.4399C605.522 20.3552 588.325 25.4804 588.325 20.8669C588.325 19.5004 589.213 18.9888 590.986 18.9888C598.432 18.9888 602.155 19.672 610.133 19.672C618.464 19.672 622.543 18.9888 626.62 18.9888C628.393 18.9888 629.989 19.5004 629.989 21.3813C629.989 25.1403 619.53 20.3552 619.53 33.6809V124.391C619.53 151.043 604.282 171.884 585.135 171.884C579.639 171.884 578.22 170.689 578.22 165.735C578.22 163.343 579.639 156.168 582.121 156.168C584.78 156.168 588.149 162.999 593.112 162.999C600.559 162.999 605.522 153.264 605.522 138.229V37.4399Z" fill="#8A939F"/>
<path d="M648.245 78.7805C648.245 43.2479 676.964 17.4511 713.309 17.4511C749.477 17.4511 777.311 42.565 777.311 77.9257C777.311 116.362 749.832 141.133 710.296 141.133C671.823 141.133 648.245 114.828 648.245 78.7805ZM661.187 73.827C661.187 105.429 682.637 136.008 717.742 136.008C743.626 136.008 764.369 116.022 764.369 84.4173C764.369 53.3265 742.564 23.0878 707.991 23.0878C678.207 23.0878 661.187 46.8353 661.187 73.827Z" fill="#8A939F"/>
<path d="M804.421 33.6809C804.247 21.2097 789 24.6255 789 20.8669C789 19.332 790.417 18.9888 791.835 18.9888C798.396 18.9888 804.777 19.672 811.338 19.672C816.834 19.672 822.33 18.9888 827.825 18.9888C830.838 18.9888 831.193 20.0152 831.193 20.6984C831.193 24.1139 818.429 20.8669 818.429 33.6809V70.5796C818.429 72.9722 818.429 73.6554 821.09 73.6554H885.976C887.748 73.6554 887.396 69.3851 887.396 68.7019V33.6809C887.396 21.893 874.1 24.7971 874.1 20.8669C874.1 19.8436 874.452 18.9888 877.112 18.9888C882.963 18.9888 892.182 19.672 895.55 19.672C902.111 19.672 904.768 18.9888 908.314 18.9888C912.924 18.9888 913.28 20.6984 913.28 21.7214C913.28 24.7971 901.401 21.893 901.401 33.6809V124.223C901.401 136.694 917.535 133.618 917.535 137.889C917.535 138.4 916.825 139.938 915.585 139.938C910.797 139.938 905.301 139.255 898.917 139.255C887.571 139.255 882.608 139.938 879.24 139.938C877.645 139.938 874.984 140.45 874.984 137.717C874.984 133.618 887.396 136.008 887.396 125.246V84.2457C887.396 81.5131 888.104 79.9751 885.976 79.9751H820.557C818.429 79.9751 818.429 81.0015 818.429 82.8792V125.418C818.429 137.034 835.271 133.276 835.271 138.572C835.271 139.427 834.031 139.938 832.436 139.938C830.13 139.938 817.189 139.255 807.792 139.255C795.203 139.255 793.252 139.938 792.545 139.938C791.125 139.938 790.595 139.084 790.595 137.377C790.595 132.421 804.421 138.06 804.421 121.147V33.6809Z" fill="#8A939F"/>
<path d="M952.445 52.6436C952.445 17.111 930.995 27.0181 930.995 20.6984C930.995 19.672 932.767 18.9888 933.652 18.9888C936.49 18.9888 939.148 19.672 941.986 19.672C944.643 19.672 947.482 18.9888 950.139 18.9888C952.09 18.9888 953.688 21.7214 954.75 22.9193L1039.32 113.63C1040.38 114.828 1041.09 115.511 1041.44 115.511C1041.8 115.511 1041.98 114.996 1041.98 113.63V42.2218C1041.98 19.8436 1022.3 26.3349 1022.3 20.6984C1022.3 19.5004 1023.19 18.9888 1024.25 18.9888C1029.57 18.9888 1034.71 19.672 1040.38 19.672C1046.41 19.672 1054.03 18.9888 1058.29 18.9888C1059.35 18.9888 1060.06 19.5004 1060.06 20.5268C1060.06 24.9687 1049.6 21.893 1049.6 34.3641V133.276C1049.6 138.229 1049.42 140.622 1048.01 140.622C1046.76 140.622 1044.99 139.767 1041.27 135.839L965.034 53.155C964.679 52.8149 962.551 49.9111 961.311 49.9111C960.601 49.9111 960.069 50.4224 960.069 53.8382V123.709C960.069 139.084 975.671 133.104 975.671 137.717C975.671 138.572 975.493 139.938 973.72 139.938C969.465 139.938 964.502 139.255 955.813 139.255C949.61 139.255 940.391 139.938 939.148 139.938C937.02 139.938 936.843 138.912 936.843 138.06C936.843 132.081 952.445 139.598 952.445 115.679V52.6436Z" fill="#8A939F"/>
<path d="M1103.49 29.2422C1103.49 45.9836 1090.19 57.4284 1085.05 57.4284C1083.81 57.4284 1083.45 56.577 1083.45 55.7222C1083.45 53.1581 1093.03 50.0855 1093.03 38.4691C1093.03 27.1928 1081.15 23.9455 1081.15 21.2128C1081.15 18.6519 1088.77 11.1342 1091.96 11.1342C1095.51 11.1342 1103.49 17.9687 1103.49 29.2422Z" fill="#8A939F"/>
<path d="M1117.31 109.702C1116.6 106.284 1117.48 104.406 1119.26 104.406C1121.74 104.406 1121.74 106.455 1122.63 110.043C1124.75 117.9 1135.39 135.668 1159.86 135.668C1176.7 135.668 1193.19 126.612 1193.19 108.676C1193.19 75.7048 1121.21 94.1558 1121.21 49.5679C1121.21 27.8729 1140.18 17.4511 1160.57 17.4511C1182.02 17.4511 1187.87 23.6023 1190.35 23.6023C1191.94 23.6023 1192.3 21.7214 1194.07 21.7214C1195.14 21.7214 1196.02 22.2361 1196.2 24.1139L1198.86 47.3469C1199.04 48.7131 1198.68 49.9111 1196.91 49.9111C1194.96 49.9111 1193.72 46.3237 1193.19 44.7859C1187.87 30.0938 1174.92 22.5762 1159.32 22.5762C1145.32 22.5762 1130.43 29.0674 1130.43 44.7859C1130.43 76.9027 1202.41 58.1085 1202.41 105.261C1202.41 119.61 1191.94 141.133 1151.7 141.133C1138.58 141.133 1122.45 134.813 1121.74 131.737L1117.31 109.702Z" fill="#8A939F"/>
<path d="M335.667 195.288C345.678 195.288 348.445 199.215 349.99 199.215C350.415 199.215 350.736 198.704 351.268 198.704C351.853 198.704 351.853 199.518 352.014 202.833C352.119 205.535 352.598 207.217 351.694 207.217C351.055 207.217 350.682 205.89 350.469 205.535C347.169 200.079 343.387 196.768 336.518 196.768C326.136 196.768 321.13 203.394 321.13 212.875C321.13 221.747 326.456 230.615 336.679 230.615C345.038 230.615 350.256 225.518 351.055 223.174C351.161 222.816 351.481 222.509 351.799 222.509C352.066 222.509 352.332 222.816 352.28 223.07L351.055 228.168C351.002 228.373 347.221 232.196 335.242 232.196C324.325 232.196 316.5 225.009 316.5 214.456C316.5 203.905 324.432 195.288 335.667 195.288Z" fill="#8A939F"/>
<path d="M357.067 213.589C357.067 202.986 365.692 195.288 376.607 195.288C387.47 195.288 395.828 202.781 395.828 213.334C395.828 224.804 387.575 232.196 375.702 232.196C364.147 232.196 357.067 224.344 357.067 213.589ZM360.954 212.112C360.954 221.541 367.395 230.667 377.938 230.667C385.712 230.667 391.941 224.703 391.941 215.27C391.941 205.995 385.392 196.97 375.01 196.97C366.065 196.97 360.954 204.055 360.954 212.112Z" fill="#8A939F"/>
<path d="M407.856 225.57C407.856 228.578 407.43 229.8 411.903 229.8C424.202 229.8 426.013 224.549 426.705 224.549C427.077 224.549 427.13 225.058 427.13 225.162C427.13 226.997 425.746 228.78 424.468 230.107C422.765 231.942 421.593 231.841 419.251 231.841C415.204 231.841 411.158 231.534 407.11 231.635C404.981 231.687 402.744 231.841 400.615 231.841C400.136 231.841 399.816 231.736 399.816 231.329C399.923 230.716 400.455 230.82 402.159 230.006C403.543 229.393 403.65 227.965 403.65 225.57V199.724C403.65 197.074 399.177 197.429 399.177 196.409C399.177 195.848 399.551 195.747 400.243 195.747C401.36 195.747 403.011 195.953 405.621 195.953C408.655 195.953 409.933 195.747 410.732 195.747C411.424 195.747 411.742 195.848 411.742 196.461C411.742 197.635 407.856 196.36 407.856 200.793V225.57Z" fill="#8A939F"/>
<path d="M439.587 225.57C439.587 228.578 439.162 229.8 443.634 229.8C455.933 229.8 457.744 224.549 458.436 224.549C458.808 224.549 458.862 225.058 458.862 225.162C458.862 226.997 457.478 228.78 456.2 230.107C454.496 231.942 453.325 231.841 450.983 231.841C446.935 231.841 442.889 231.534 438.841 231.635C436.712 231.687 434.475 231.841 432.346 231.841C431.867 231.841 431.547 231.736 431.547 231.329C431.654 230.716 432.187 230.82 433.891 230.006C435.275 229.393 435.382 227.965 435.382 225.57V199.724C435.382 197.074 430.909 197.429 430.909 196.409C430.909 195.848 431.282 195.747 431.974 195.747C433.092 195.747 434.742 195.953 437.352 195.953C440.386 195.953 441.664 195.747 442.463 195.747C443.155 195.747 443.474 195.848 443.474 196.461C443.474 197.635 439.587 196.36 439.587 200.793V225.57Z" fill="#8A939F"/>
<path d="M470.36 210.58C470.36 212.314 470.253 212.314 472.384 212.314H478.133C483.67 212.314 482.233 208.237 483.511 208.237C483.937 208.237 484.098 208.798 484.098 209.205C484.098 210.991 483.991 212.722 483.991 214.354C483.991 215.678 484.098 217.005 484.098 218.38C484.098 218.839 483.883 219.045 483.511 219.045C481.861 219.045 483.67 214.557 479.199 214.557H471.318C470.201 214.557 470.36 215.424 470.36 216.19V225.57C470.36 228.578 469.934 229.8 474.406 229.8C486.706 229.8 488.516 224.549 489.209 224.549C489.581 224.549 489.635 225.058 489.635 225.162C489.635 226.997 488.249 228.78 486.973 230.107C485.269 231.942 484.098 231.841 481.754 231.841C477.708 231.841 473.661 231.534 469.614 231.635C467.485 231.687 465.249 231.841 463.119 231.841C462.64 231.841 462.32 231.736 462.32 231.329C462.427 230.716 462.958 230.82 464.662 230.006C466.047 229.393 466.153 227.965 466.153 225.57V202.325C466.153 200.03 466.153 197.583 463.278 197.175C462.853 197.074 461.682 196.97 461.682 196.36C461.682 195.953 462 195.747 463.545 195.747C473.609 195.747 476.376 195.953 478.613 195.953C479.678 195.953 484.577 195.747 486.227 195.747C486.653 195.747 486.76 196.256 486.76 196.869C486.76 202.527 486.014 202.934 485.694 202.934C484.416 202.934 485.269 200.49 484.416 199.316C483.032 197.583 477.495 197.889 475.364 197.889C470.253 197.889 470.36 197.684 470.36 201.099V210.58Z" fill="#8A939F"/>
<path d="M530.416 212.875C530.842 212.875 531.854 212.673 531.854 213.334C531.854 214.404 529.138 213.233 529.138 216.649V227.046C523.653 228.728 522.216 232.196 512.738 232.196C500.972 232.196 493.678 225.211 493.678 213.895C493.678 202.885 502.302 195.288 513.591 195.288C522.802 195.288 525.464 198.756 526.955 198.756C527.54 198.756 527.754 197.837 528.339 197.837C529.085 197.837 528.872 198.603 528.925 199.01L529.458 205.688C529.458 206.096 529.404 206.604 528.872 206.604C527.488 206.604 525.091 196.768 512.525 196.768C502.941 196.768 498.149 204.515 498.149 212.927C498.149 221.949 503.581 230.566 513.857 230.566C518.702 230.566 524.931 228.272 524.931 223.937V216.036C524.931 213.641 520.299 214.71 520.299 213.436C520.299 212.774 521.044 212.875 521.524 212.875H530.416Z" fill="#8A939F"/>
<path d="M544.575 210.58C544.575 212.314 544.468 212.314 546.599 212.314H552.349C557.886 212.314 556.448 208.237 557.726 208.237C558.152 208.237 558.313 208.798 558.313 209.205C558.313 210.991 558.206 212.722 558.206 214.354C558.206 215.678 558.313 217.005 558.313 218.38C558.313 218.839 558.099 219.045 557.726 219.045C556.076 219.045 557.886 214.557 553.414 214.557H545.534C544.416 214.557 544.575 215.424 544.575 216.19V225.57C544.575 228.578 544.15 229.8 548.621 229.8C560.922 229.8 562.731 224.549 563.424 224.549C563.796 224.549 563.85 225.058 563.85 225.162C563.85 226.997 562.465 228.78 561.188 230.107C559.484 231.942 558.313 231.841 555.969 231.841C551.923 231.841 547.875 231.534 543.83 231.635C541.7 231.687 539.464 231.841 537.334 231.841C536.855 231.841 536.535 231.736 536.535 231.329C536.642 230.716 537.174 230.82 538.877 230.006C540.263 229.393 540.368 227.965 540.368 225.57V202.325C540.368 200.03 540.368 197.583 537.493 197.175C537.068 197.074 535.897 196.97 535.897 196.36C535.897 195.953 536.215 195.747 537.76 195.747C547.823 195.747 550.591 195.953 552.828 195.953C553.893 195.953 558.792 195.747 560.442 195.747C560.868 195.747 560.975 196.256 560.975 196.869C560.975 202.527 560.23 202.934 559.91 202.934C558.631 202.934 559.484 200.49 558.631 199.316C557.247 197.583 551.71 197.889 549.579 197.889C544.468 197.889 544.575 197.684 544.575 201.099V210.58Z" fill="#8A939F"/>
<path d="M590.147 200.131C590.093 196.409 585.514 197.429 585.514 196.308C585.514 195.848 585.941 195.747 586.367 195.747C588.337 195.747 590.254 195.953 592.224 195.953C593.874 195.953 595.525 195.747 597.175 195.747C598.081 195.747 598.187 196.054 598.187 196.256C598.187 197.276 594.353 196.308 594.353 200.131V211.141C594.353 211.855 594.353 212.06 595.152 212.06H614.64C615.17 212.06 615.066 210.786 615.066 210.58V200.131C615.066 196.615 611.07 197.481 611.07 196.308C611.07 196.002 611.178 195.747 611.976 195.747C613.734 195.747 616.502 195.953 617.512 195.953C619.484 195.953 620.283 195.747 621.348 195.747C622.732 195.747 622.836 196.256 622.836 196.562C622.836 197.481 619.269 196.615 619.269 200.131V227.15C619.269 230.869 624.116 229.953 624.116 231.228C624.116 231.381 623.902 231.841 623.531 231.841C622.092 231.841 620.442 231.635 618.525 231.635C615.118 231.635 613.627 231.841 612.616 231.841C612.136 231.841 611.337 231.991 611.337 231.176C611.337 229.953 615.066 230.667 615.066 227.454V215.221C615.066 214.404 615.277 213.947 614.64 213.947H594.992C594.353 213.947 594.353 214.253 594.353 214.814V227.506C594.353 230.974 599.411 229.852 599.411 231.43C599.411 231.687 599.039 231.841 598.56 231.841C597.868 231.841 593.981 231.635 591.159 231.635C587.379 231.635 586.793 231.841 586.58 231.841C586.154 231.841 585.993 231.583 585.993 231.075C585.993 229.595 590.147 231.28 590.147 226.231V200.131Z" fill="#8A939F"/>
<path d="M634.226 200.131C634.174 196.409 629.912 197.429 629.912 196.308C629.912 195.848 630.019 195.747 630.445 195.747C632.416 195.747 634.333 195.953 636.302 195.953C637.952 195.953 639.602 195.747 641.255 195.747C642.107 195.747 642.266 195.848 642.266 196.256C642.266 197.481 638.432 196.308 638.432 200.131V227.506C638.432 230.974 643.172 229.8 643.172 231.329C643.172 231.687 643.013 231.841 642.107 231.841C640.882 231.841 638.592 231.635 636.302 231.635C633.053 231.635 631.935 231.841 631.191 231.841C630.233 231.841 630.074 231.583 630.074 231.075C630.074 229.595 634.226 231.28 634.226 226.231V200.131Z" fill="#8A939F"/>
<path d="M683.476 212.875C683.901 212.875 684.915 212.673 684.915 213.334C684.915 214.404 682.199 213.233 682.199 216.649V227.046C676.716 228.728 675.277 232.196 665.801 232.196C654.032 232.196 646.739 225.211 646.739 213.895C646.739 202.885 655.364 195.288 666.652 195.288C675.862 195.288 678.525 198.756 680.016 198.756C680.601 198.756 680.815 197.837 681.4 197.837C682.147 197.837 681.933 198.603 681.985 199.01L682.518 205.688C682.518 206.096 682.466 206.604 681.933 206.604C680.549 206.604 678.152 196.768 665.586 196.768C656.004 196.768 651.212 204.515 651.212 212.927C651.212 221.949 656.64 230.566 666.918 230.566C671.762 230.566 677.993 228.272 677.993 223.937V216.036C677.993 213.641 673.36 214.71 673.36 213.436C673.36 212.774 674.107 212.875 674.585 212.875H683.476Z" fill="#8A939F"/>
<path d="M692.842 200.131C692.79 196.409 688.209 197.429 688.209 196.308C688.209 195.848 688.635 195.747 689.06 195.747C691.032 195.747 692.949 195.953 694.917 195.953C696.568 195.953 698.221 195.747 699.871 195.747C700.775 195.747 700.882 196.054 700.882 196.256C700.882 197.276 697.048 196.308 697.048 200.131V211.141C697.048 211.855 697.048 212.06 697.848 212.06H717.335C717.868 212.06 717.761 210.786 717.761 210.58V200.131C717.761 196.615 713.768 197.481 713.768 196.308C713.768 196.002 713.872 195.747 714.671 195.747C716.429 195.747 719.2 195.953 720.21 195.953C722.179 195.953 722.978 195.747 724.043 195.747C725.427 195.747 725.534 196.256 725.534 196.562C725.534 197.481 721.967 196.615 721.967 200.131V227.15C721.967 230.869 726.811 229.953 726.811 231.228C726.811 231.381 726.6 231.841 726.226 231.841C724.79 231.841 723.137 231.635 721.22 231.635C717.813 231.635 716.322 231.841 715.311 231.841C714.831 231.841 714.035 231.991 714.035 231.176C714.035 229.953 717.761 230.667 717.761 227.454V215.221C717.761 214.404 717.975 213.947 717.335 213.947H697.688C697.048 213.947 697.048 214.253 697.048 214.814V227.506C697.048 230.974 702.106 229.852 702.106 231.43C702.106 231.687 701.733 231.841 701.255 231.841C700.563 231.841 696.675 231.635 693.855 231.635C690.074 231.635 689.489 231.841 689.275 231.841C688.849 231.841 688.69 231.583 688.69 231.075C688.69 229.595 692.842 231.28 692.842 226.231V200.131Z" fill="#8A939F"/>
<path d="M749.807 222.816C749.593 221.796 749.859 221.235 750.392 221.235C751.136 221.235 751.136 221.848 751.402 222.917C752.042 225.263 755.239 230.566 762.584 230.566C767.645 230.566 772.595 227.864 772.595 222.509C772.595 212.673 750.977 218.178 750.977 204.873C750.977 198.397 756.675 195.288 762.798 195.288C769.24 195.288 770.997 197.123 771.744 197.123C772.222 197.123 772.329 196.562 772.862 196.562C773.18 196.562 773.447 196.716 773.502 197.276L774.298 204.209C774.353 204.616 774.246 204.974 773.713 204.974C773.128 204.974 772.755 203.905 772.595 203.446C770.997 199.062 767.112 196.817 762.424 196.817C758.218 196.817 753.748 198.756 753.748 203.446C753.748 213.028 775.363 207.422 775.363 221.492C775.363 225.772 772.222 232.196 760.134 232.196C756.197 232.196 751.35 230.309 751.136 229.393L749.807 222.816Z" fill="#8A939F"/>
<path d="M800.172 195.288C810.184 195.288 812.951 199.215 814.494 199.215C814.923 199.215 815.242 198.704 815.774 198.704C816.359 198.704 816.359 199.518 816.518 202.833C816.625 205.535 817.106 207.217 816.2 207.217C815.56 207.217 815.19 205.89 814.975 205.535C811.675 200.079 807.894 196.768 801.026 196.768C790.641 196.768 785.638 203.394 785.638 212.875C785.638 221.747 790.963 230.615 801.185 230.615C809.544 230.615 814.761 225.518 815.56 223.174C815.667 222.816 815.986 222.509 816.307 222.509C816.573 222.509 816.84 222.816 816.785 223.07L815.56 228.168C815.508 228.373 811.727 232.196 799.746 232.196C788.832 232.196 781.006 225.009 781.006 214.456C781.006 203.905 788.939 195.288 800.172 195.288Z" fill="#8A939F"/>
<path d="M827.323 200.131C827.271 196.409 822.691 197.429 822.691 196.308C822.691 195.848 823.116 195.747 823.542 195.747C825.514 195.747 827.43 195.953 829.399 195.953C831.049 195.953 832.703 195.747 834.353 195.747C835.256 195.747 835.363 196.054 835.363 196.256C835.363 197.276 831.53 196.308 831.53 200.131V211.141C831.53 211.855 831.53 212.06 832.329 212.06H851.816C852.349 212.06 852.242 210.786 852.242 210.58V200.131C852.242 196.615 848.25 197.481 848.25 196.308C848.25 196.002 848.354 195.747 849.153 195.747C850.91 195.747 853.681 195.953 854.691 195.953C856.66 195.953 857.459 195.747 858.525 195.747C859.908 195.747 860.016 196.256 860.016 196.562C860.016 197.481 856.449 196.615 856.449 200.131V227.15C856.449 230.869 861.292 229.953 861.292 231.228C861.292 231.381 861.081 231.841 860.708 231.841C859.272 231.841 857.618 231.635 855.702 231.635C852.294 231.635 850.803 231.841 849.793 231.841C849.312 231.841 848.516 231.991 848.516 231.176C848.516 229.953 852.242 230.667 852.242 227.454V215.221C852.242 214.404 852.456 213.947 851.816 213.947H832.17C831.53 213.947 831.53 214.253 831.53 214.814V227.506C831.53 230.974 836.588 229.852 836.588 231.43C836.588 231.687 836.214 231.841 835.736 231.841C835.044 231.841 831.156 231.635 828.336 231.635C824.555 231.635 823.97 231.841 823.756 231.841C823.331 231.841 823.171 231.583 823.171 231.075C823.171 229.595 827.323 231.28 827.323 226.231V200.131Z" fill="#8A939F"/>
<path d="M865.123 213.589C865.123 202.986 873.747 195.288 884.662 195.288C895.525 195.288 903.884 202.781 903.884 213.334C903.884 224.804 895.632 232.196 883.756 232.196C872.204 232.196 865.123 224.344 865.123 213.589ZM869.008 212.112C869.008 221.541 875.453 230.667 885.994 230.667C893.768 230.667 899.998 224.703 899.998 215.27C899.998 205.995 893.449 196.97 883.064 196.97C874.121 196.97 869.008 204.055 869.008 212.112Z" fill="#8A939F"/>
<path d="M909.737 213.589C909.737 202.986 918.362 195.288 929.277 195.288C940.14 195.288 948.498 202.781 948.498 213.334C948.498 224.804 940.247 232.196 928.371 232.196C916.819 232.196 909.737 224.344 909.737 213.589ZM913.623 212.112C913.623 221.541 920.068 230.667 930.609 230.667C938.383 230.667 944.613 224.703 944.613 215.27C944.613 205.995 938.064 196.97 927.679 196.97C918.736 196.97 913.623 204.055 913.623 212.112Z" fill="#8A939F"/>
<path d="M962.659 225.57C962.659 228.578 962.233 229.8 966.703 229.8C979.005 229.8 980.814 224.549 981.506 224.549C981.88 224.549 981.932 225.058 981.932 225.162C981.932 226.997 980.548 228.78 979.271 230.107C977.566 231.942 976.393 231.841 974.051 231.841C970.007 231.841 965.959 231.534 961.911 231.635C959.784 231.687 957.546 231.841 955.418 231.841C954.937 231.841 954.619 231.736 954.619 231.329C954.723 230.716 955.255 230.82 956.961 230.006C958.344 229.393 958.452 227.965 958.452 225.57V199.724C958.452 197.074 953.979 197.429 953.979 196.409C953.979 195.848 954.352 195.747 955.044 195.747C956.162 195.747 957.812 195.953 960.421 195.953C963.458 195.953 964.734 195.747 965.533 195.747C966.225 195.747 966.544 195.848 966.544 196.461C966.544 197.635 962.659 196.36 962.659 200.793V225.57Z" fill="#8A939F"/>
<path d="M1045.07 210.58C1045.07 212.314 1044.97 212.314 1047.09 212.314H1052.85C1058.38 212.314 1056.95 208.237 1058.22 208.237C1058.65 208.237 1058.81 208.798 1058.81 209.205C1058.81 210.991 1058.7 212.722 1058.7 214.354C1058.7 215.678 1058.81 217.005 1058.81 218.38C1058.81 218.839 1058.6 219.045 1058.22 219.045C1056.57 219.045 1058.38 214.557 1053.91 214.557H1046.03C1044.91 214.557 1045.07 215.424 1045.07 216.19V225.57C1045.07 228.578 1044.64 229.8 1049.12 229.8C1061.42 229.8 1063.23 224.549 1063.92 224.549C1064.29 224.549 1064.35 225.058 1064.35 225.162C1064.35 226.997 1062.96 228.78 1061.68 230.107C1059.98 231.942 1058.81 231.841 1056.47 231.841C1052.42 231.841 1048.37 231.534 1044.33 231.635C1042.2 231.687 1039.96 231.841 1037.83 231.841C1037.35 231.841 1037.03 231.736 1037.03 231.329C1037.14 230.716 1037.67 230.82 1039.38 230.006C1040.76 229.393 1040.87 227.965 1040.87 225.57V202.325C1040.87 200.03 1040.87 197.583 1037.99 197.175C1037.56 197.074 1036.39 196.97 1036.39 196.36C1036.39 195.953 1036.71 195.747 1038.25 195.747C1048.32 195.747 1051.09 195.953 1053.32 195.953C1054.39 195.953 1059.29 195.747 1060.94 195.747C1061.36 195.747 1061.47 196.256 1061.47 196.869C1061.47 202.527 1060.72 202.934 1060.41 202.934C1059.13 202.934 1059.98 200.49 1059.13 199.316C1057.74 197.583 1052.21 197.889 1050.08 197.889C1044.97 197.889 1045.07 197.684 1045.07 201.099V210.58Z" fill="#8A939F"/>
<path d="M1068.12 215.883C1068.12 211.806 1071.42 209.765 1075.31 209.765C1076.22 209.765 1079.89 210.173 1080.53 210.939C1080.85 211.346 1080.8 213.08 1080.8 213.436C1080.8 214.814 1081.01 215.424 1080.21 215.424C1079.68 215.424 1079.2 210.991 1074.35 210.991C1072.28 210.991 1070.63 212.161 1070.63 214.253C1070.63 215.935 1072.01 217.005 1077.6 219.146C1080.63 220.368 1082.02 221.949 1082.02 225.211C1082.02 229.034 1078.77 232.196 1074.83 232.196C1071.1 232.196 1070.14 230.716 1068.87 230.716C1067.7 230.716 1067.7 230.667 1067.7 226.639C1067.7 225.772 1067.54 224.142 1068.34 224.142C1069.51 224.142 1068.92 230.869 1074.67 230.869C1077.28 230.869 1079.41 229.341 1079.41 226.691C1079.41 223.989 1076.7 223.174 1074.57 222.203C1071.69 220.828 1068.12 219.504 1068.12 215.883Z" fill="#8A939F"/>
<path d="M1090.43 212.52C1087.93 212.52 1087.56 212.52 1087.56 212.161C1087.56 211.754 1088.89 210.887 1091.6 208.032C1092.67 206.81 1093.2 205.688 1093.63 205.688C1094.37 205.688 1094.32 206.757 1094.32 210.43H1100.17C1101.51 210.43 1102.09 209.563 1102.25 209.563C1102.52 209.563 1102.62 209.817 1102.62 209.971C1102.62 210.173 1102.46 210.43 1102.3 210.685L1101.24 212.52H1094.32V227.353C1094.42 229.442 1095.92 230.413 1098.04 230.413C1100.87 230.413 1101.67 229.24 1102.57 229.24C1102.78 229.24 1103 229.292 1103 229.699C1103 230.462 1100.12 232.196 1096.39 232.196C1093.94 232.196 1090.43 231.534 1090.43 226.284V212.52Z" fill="#8A939F"/>
<path d="M1122.85 203.801C1122.85 201.917 1122.96 200.591 1120.94 200.591C1120.08 200.591 1118.16 201.406 1117.74 201.406C1117.53 201.406 1117.21 201.203 1117.21 200.897C1117.21 199.978 1118.27 199.978 1121.04 198.909C1124.24 197.684 1126.37 195.747 1126.58 195.747C1127 195.747 1127.11 196.155 1127.11 196.513C1127.11 197.38 1126.74 198.042 1126.74 199.877V226.437C1126.74 232.297 1132.59 229.546 1132.59 231.28C1132.59 231.841 1131.58 231.841 1130.73 231.841C1129.03 231.841 1127.27 231.635 1125.25 231.635C1123.28 231.635 1120.3 231.841 1118.8 231.841C1118.11 231.841 1117.69 231.789 1117.69 231.228C1117.69 229.8 1122.85 231.687 1122.85 227.252V203.801Z" fill="#8A939F"/>
<path d="M1138.98 204.72C1138.98 199.622 1143.45 195.747 1148.67 195.747C1154.16 195.747 1157.88 198.55 1157.88 204.006C1157.88 207.471 1155.01 210.225 1151.87 211.552C1156.29 213.436 1159.22 216.649 1159.22 221.44C1159.22 227.812 1154.42 232.196 1147.82 232.196C1142.23 232.196 1137.39 228.321 1137.39 222.001C1137.39 217.464 1140.15 214.253 1144.25 212.265C1141.16 210.939 1138.98 207.983 1138.98 204.72ZM1156.18 223.021C1156.18 216.698 1146.33 213.282 1145.9 213.282C1143.67 213.282 1139.99 216.955 1139.99 221.134C1139.99 225.518 1143.45 230.716 1148.46 230.716C1153.3 230.716 1156.18 227.506 1156.18 223.021ZM1155.33 204.006C1155.33 200.131 1152.29 197.175 1148.19 197.175C1144.57 197.175 1141.86 199.57 1141.86 203.087C1141.86 207.575 1146.33 210.225 1149.79 210.225C1153.25 210.225 1155.33 207.575 1155.33 204.006Z" fill="#8A939F"/>
<path d="M1167.57 208.338C1169.01 208.032 1170.45 207.778 1171.94 207.778C1178.38 207.778 1182.8 211.855 1182.8 218.025C1182.8 222.868 1179.87 231.942 1168.96 231.942C1164.33 231.942 1162.09 230.462 1162.09 230.006C1162.09 229.748 1162.14 229.494 1162.51 229.494C1162.94 229.494 1164.33 230.566 1167.73 230.566C1173.53 230.566 1178.81 226.74 1178.81 219.654C1178.81 216.649 1178.01 211.245 1169.97 211.245C1168.53 211.245 1166.77 211.705 1165.92 211.705C1165.6 211.705 1165.28 211.447 1165.34 211.141L1167.79 198.397C1168.1 196.768 1168.05 196.054 1170.13 195.953H1179.07C1181.68 195.953 1181.9 194.268 1182.59 194.268C1182.8 194.268 1183.01 194.32 1183.01 194.574C1183.01 195.034 1181.47 198.296 1181.04 198.958C1180.46 199.877 1179.66 199.672 1177.69 199.672H1171.83C1170.39 199.672 1169.33 199.672 1169.07 201.05L1167.57 208.338Z" fill="#8A939F"/>
<path d="M1195.26 203.801C1195.26 201.917 1195.36 200.591 1193.34 200.591C1192.49 200.591 1190.57 201.406 1190.14 201.406C1189.93 201.406 1189.61 201.203 1189.61 200.897C1189.61 199.978 1190.68 199.978 1193.45 198.909C1196.64 197.684 1198.77 195.747 1198.98 195.747C1199.41 195.747 1199.52 196.155 1199.52 196.513C1199.52 197.38 1199.14 198.042 1199.14 199.877V226.437C1199.14 232.297 1205 229.546 1205 231.28C1205 231.841 1203.99 231.841 1203.14 231.841C1201.43 231.841 1199.68 231.635 1197.65 231.635C1195.68 231.635 1192.7 231.841 1191.21 231.841C1190.52 231.841 1190.09 231.789 1190.09 231.228C1190.09 229.8 1195.26 231.687 1195.26 227.252V203.801Z" fill="#8A939F"/>
<path d="M1009.34 186.971H1007.54V241H1009.34V186.971Z" fill="#8A939F"/>
<path d="M183.842 197.074C157.887 216.034 142.439 222.502 132.089 222.502C121.738 222.502 106.291 216.034 80.3356 197.074C54.3798 178.115 38.1373 156.14 38.1373 156.14C28.263 156.211 22.5311 154.693 22.5311 154.693C22.5311 154.693 35.8895 178.299 74.4435 207.911C105.624 231.858 124.314 234.568 130.116 234.742C131.455 234.782 132.792 234.799 134.361 234.731C140.536 234.461 159.135 231.411 189.735 207.911C228.289 178.299 241.646 154.693 241.646 154.693C241.646 154.693 234.485 157.174 224.216 158.13C224.216 158.13 209.798 178.115 183.842 197.074Z" fill="#CC0033"/>
<path d="M28.7394 35.4872V21.8282C28.7394 21.8282 91.9483 11.95 132.076 11.95C172.204 11.95 234.086 21.8282 234.086 21.8282V33.8804C239.566 34.1356 246.776 35.7196 246.776 35.7196L246.826 11.4734C246.826 11.4734 174.912 0 132.076 0C89.2398 0 16.0002 11.4735 16.0002 11.4735V40.3119C16.0002 40.3119 20.7122 37.4102 28.7394 35.4872Z" fill="#CC0033"/>
<path d="M257.003 123.842L255.022 125.677C245.079 134.629 233.151 141.592 222.712 141.592C212.273 141.592 203.575 136.619 199.225 131.77C194.877 126.921 188.165 113.492 188.165 97.2039C188.165 80.916 191.272 68.8548 196.616 60.7733C201.96 52.6919 211.404 48.2147 221.222 48.2147C231.04 48.2147 236.879 50.8259 242.72 56.4212C248.56 62.0162 252.661 74.657 252.661 74.657H259.247V47.7174C252.538 44.2361 236.63 41.1273 221.097 41.1273C205.564 41.1273 184.437 44.8573 171.968 57.9544C169.544 60.5014 167.544 63.0778 165.872 65.7164H94.3303V48.0047C83.3685 43.6782 70.0946 41.1627 52.0927 41.1627C34.0908 41.1627 2.01202 48.804 2.01202 70.2361C2.01202 90.6694 26.8214 97.984 39.0907 101.908C51.3598 105.832 72.3479 110.864 72.3479 125.555C72.3479 139.643 54.1915 141.014 47.5538 141.014C41.2185 141.014 30.4119 139.037 21.5626 131.39C12.7132 123.743 8.04558 112.603 8.04558 112.603L0 112.503L3.24768 139.068C3.24768 139.068 19.0646 148.296 47.6679 148.426C100.061 148.664 103.985 125.384 103.985 116.729C103.985 108.075 98.8564 94.3922 73.0108 86.7446C47.1652 79.0969 44.1065 76.8874 38.8186 73.8649C32.9485 70.5091 28.4601 59.8782 38.0143 52.8351C47.5682 45.7919 61.2372 47.4315 71.8451 52.6749C83.7715 58.5703 86.5872 72.337 86.5872 72.337H104.788C113.84 72.337 117.36 75.6792 117.36 82.018V158.288C117.36 164.325 115.997 179.616 103.179 184.45C103.064 183.797 102.785 182.894 102.361 181.862C100.56 177.483 96.0897 170.766 89.9049 170.766C82.2614 170.766 79.849 177.707 79.849 180.225C79.849 182.444 80.0982 188.884 89.7545 190.371C91.0424 190.571 92.4841 190.688 94.1292 190.688C97.0495 190.744 97.8057 190.742 99.3833 190.605C133.022 187.692 146.122 167.281 146.122 148.73V82.0172C146.122 74.4701 152.054 72.3177 155.776 72.3177H162.443C159.448 79.5598 158.465 87.4714 158.465 96.7895C158.465 112.581 163.933 125.179 171.887 132.889C179.84 140.599 194.627 148.431 218.487 148.431C242.346 148.431 257.757 133.634 259.495 131.77L262.221 128.787L257.003 123.842Z" fill="#CC0033"/>
</svg>
