<svg width="200" height="40" viewBox="0 0 200 40" fill="none" xmlns="http://www.w3.org/2000/svg">
<path d="M52.8362 18.2079C52.7186 17.6405 52.8657 17.3288 53.1599 17.3288C53.572 17.3288 53.572 17.669 53.7191 18.2643C54.0723 19.5685 55.8377 22.5175 59.8984 22.5175C62.6941 22.5175 65.4305 21.0145 65.4305 18.0376C65.4305 12.5651 53.4836 15.6275 53.4836 8.22703C53.4836 4.62621 56.6322 2.89644 60.0163 2.89644C63.5768 2.89644 64.5479 3.91739 64.9597 3.91739C65.2245 3.91739 65.2834 3.60521 65.5776 3.60521C65.7542 3.60521 65.9014 3.69065 65.9308 4.00231L66.3722 7.85841C66.4016 8.08516 66.3427 8.28399 66.0485 8.28399C65.7247 8.28399 65.5189 7.68858 65.4305 7.43335C64.5479 4.99483 62.3996 3.74708 59.8102 3.74708C57.4856 3.74708 55.0139 4.82447 55.0139 7.43335C55.0139 12.7639 66.9606 9.64456 66.9606 17.4706C66.9606 19.8522 65.2245 23.4245 58.5449 23.4245C56.3674 23.4245 53.6897 22.3756 53.572 21.8651L52.8362 18.2079Z" fill="white"/>
<path d="M77.6406 6.01525C77.6406 5.81699 77.7583 4.73955 77.3464 4.71112H72.5501C70.7256 4.71112 70.6669 5.13665 70.1371 6.69611C70.049 6.97929 70.0195 7.34791 69.6369 7.34791C69.4602 7.34791 69.3426 7.1496 69.3426 7.00777L69.6663 4.25758C69.6958 3.91739 69.6663 3.15166 70.1961 3.15166C72.4912 3.15166 74.7571 3.26507 78.5528 3.26507C83.8791 3.26507 86.5861 3.15166 87.1746 3.15166C87.8514 3.15166 87.9986 3.32202 88.028 3.97383L88.1752 6.24205C88.2046 6.52575 88.2341 6.86589 87.8514 6.86589C86.7627 6.86589 88.3517 4.71112 85.3503 4.71112H81.1424C79.8181 4.71112 79.9652 4.59773 79.9652 6.10069V20.561C79.9652 22.9426 82.3488 22.007 82.3488 22.8861C82.3488 22.971 82.3783 23.2263 82.084 23.2263C81.3777 23.2263 80.554 23.1129 79.7005 23.1129C76.4048 23.1129 75.8458 23.2263 75.6693 23.2263C75.4045 23.2263 75.3161 23.1414 75.3161 22.8577C75.3161 22.1773 77.6406 22.4606 77.6406 20.7593V6.01525Z" fill="white"/>
<path d="M87.467 20.4191C88.0849 19.7388 87.9968 19.4836 88.3794 19.4836C88.7913 19.4836 88.6737 19.7388 89.321 20.4191C89.88 21.0145 90.2627 20.9296 90.2627 21.2983C90.2627 21.6669 89.88 21.6384 89.321 22.2622C88.6737 22.8292 88.7913 23.1129 88.3794 23.1129C87.9968 23.1129 88.0849 22.8292 87.467 22.2622C86.8786 21.6384 86.4962 21.6669 86.4962 21.2983C86.4962 20.9296 86.8786 21.0145 87.467 20.4191Z" fill="white"/>
<path d="M100.502 6.21409C100.502 3.37846 97.6473 4.2291 97.6473 3.46338C97.6473 3.23659 97.7947 3.15166 98.0889 3.15166C99.3247 3.15166 99.9427 3.26507 101.267 3.26507C102.65 3.26507 103.327 3.15166 104.003 3.15166C104.298 3.15166 104.562 3.23659 104.562 3.54877C104.562 4.17266 102.826 3.37846 102.826 5.59019V20.6459C102.826 25.0694 100.296 28.5284 97.1178 28.5284C96.2057 28.5284 95.9701 28.3301 95.9701 27.5079C95.9701 27.1108 96.2057 25.92 96.6175 25.92C97.0588 25.92 97.6181 27.0539 98.4418 27.0539C99.6779 27.0539 100.502 25.438 100.502 22.9426V6.21409Z" fill="white"/>
<path d="M107.593 13.0756C107.593 7.17808 112.359 2.89644 118.392 2.89644C124.394 2.89644 129.014 7.06473 129.014 12.9337C129.014 19.3133 124.453 23.4245 117.892 23.4245C111.506 23.4245 107.593 19.0585 107.593 13.0756ZM109.741 12.2534C109.741 17.4986 113.301 22.5739 119.127 22.5739C123.423 22.5739 126.866 19.2568 126.866 14.0112C126.866 8.85088 123.247 3.832 117.509 3.832C112.565 3.832 109.741 7.77349 109.741 12.2534Z" fill="white"/>
<path d="M133.514 5.59019C133.485 3.52028 130.954 4.08723 130.954 3.46338C130.954 3.20863 131.19 3.15166 131.425 3.15166C132.514 3.15166 133.573 3.26507 134.662 3.26507C135.574 3.26507 136.486 3.15166 137.398 3.15166C137.898 3.15166 137.957 3.32202 137.957 3.43542C137.957 4.00231 135.839 3.46338 135.839 5.59019V11.7145C135.839 12.1116 135.839 12.225 136.28 12.225H147.05C147.344 12.225 147.286 11.5162 147.286 11.4028V5.59019C147.286 3.63369 145.079 4.11571 145.079 3.46338C145.079 3.29354 145.137 3.15166 145.579 3.15166C146.55 3.15166 148.08 3.26507 148.639 3.26507C149.728 3.26507 150.169 3.15166 150.757 3.15166C151.523 3.15166 151.582 3.43542 151.582 3.60521C151.582 4.11571 149.61 3.63369 149.61 5.59019V20.6179C149.61 22.6878 152.288 22.1773 152.288 22.8861C152.288 22.971 152.17 23.2263 151.964 23.2263C151.17 23.2263 150.257 23.1129 149.198 23.1129C147.315 23.1129 146.491 23.2263 145.932 23.2263C145.667 23.2263 145.226 23.3112 145.226 22.8577C145.226 22.1773 147.286 22.5739 147.286 20.7878V13.9827C147.286 13.5291 147.403 13.2739 147.05 13.2739H136.192C135.839 13.2739 135.839 13.4442 135.839 13.7559V20.8162C135.839 22.7443 138.634 22.1204 138.634 22.9995C138.634 23.1414 138.428 23.2263 138.164 23.2263C137.781 23.2263 135.633 23.1129 134.073 23.1129C131.984 23.1129 131.66 23.2263 131.543 23.2263C131.307 23.2263 131.219 23.0844 131.219 22.8012C131.219 21.9785 133.514 22.9146 133.514 20.1074V5.59019Z" fill="white"/>
<path d="M158.082 8.73753C158.082 2.84 154.522 4.48433 154.522 3.43542C154.522 3.26507 154.816 3.15166 154.963 3.15166C155.434 3.15166 155.875 3.26507 156.346 3.26507C156.787 3.26507 157.258 3.15166 157.699 3.15166C158.023 3.15166 158.288 3.60521 158.465 3.80404L172.501 18.8597C172.678 19.0585 172.795 19.1719 172.854 19.1719C172.913 19.1719 172.942 19.0865 172.942 18.8597V7.00777C172.942 3.29354 169.676 4.37093 169.676 3.43542C169.676 3.23659 169.823 3.15166 170 3.15166C170.882 3.15166 171.736 3.26507 172.678 3.26507C173.678 3.26507 174.943 3.15166 175.649 3.15166C175.826 3.15166 175.944 3.23659 175.944 3.40694C175.944 4.14419 174.208 3.63369 174.208 5.70359V22.1204C174.208 22.9426 174.178 23.3397 173.943 23.3397C173.737 23.3397 173.442 23.1978 172.824 22.5459L160.172 8.8224C160.113 8.76596 159.76 8.28399 159.554 8.28399C159.436 8.28399 159.347 8.36886 159.347 8.9358V20.5325C159.347 23.0844 161.937 22.0919 161.937 22.8577C161.937 22.9995 161.908 23.2263 161.613 23.2263C160.907 23.2263 160.083 23.1129 158.641 23.1129C157.612 23.1129 156.081 23.2263 155.875 23.2263C155.522 23.2263 155.493 23.0559 155.493 22.9146C155.493 21.9221 158.082 23.1698 158.082 19.1999V8.73753Z" fill="white"/>
<path d="M183.151 4.85347C183.151 7.63214 180.944 9.53168 180.091 9.53168C179.885 9.53168 179.826 9.39038 179.826 9.2485C179.826 8.82292 181.415 8.31294 181.415 6.38491C181.415 4.51333 179.443 3.97435 179.443 3.5208C179.443 3.09575 180.709 1.84801 181.239 1.84801C181.827 1.84801 183.151 2.98235 183.151 4.85347Z" fill="white"/>
<path d="M185.445 18.2079C185.327 17.6405 185.475 17.3288 185.769 17.3288C186.181 17.3288 186.181 17.669 186.328 18.2643C186.681 19.5685 188.446 22.5175 192.507 22.5175C195.303 22.5175 198.039 21.0145 198.039 18.0376C198.039 12.5651 186.093 15.6275 186.093 8.22703C186.093 4.62621 189.241 2.89644 192.625 2.89644C196.185 2.89644 197.156 3.91739 197.568 3.91739C197.833 3.91739 197.892 3.60521 198.186 3.60521C198.363 3.60521 198.51 3.69065 198.54 4.00231L198.981 7.85841C199.011 8.08516 198.952 8.28399 198.657 8.28399C198.334 8.28399 198.127 7.68858 198.039 7.43335C197.156 4.99483 195.008 3.74708 192.419 3.74708C190.094 3.74708 187.623 4.82447 187.623 7.43335C187.623 12.7639 199.57 9.64456 199.57 17.4706C199.57 19.8522 197.833 23.4245 191.154 23.4245C188.976 23.4245 186.298 22.3756 186.181 21.8651L185.445 18.2079Z" fill="white"/>
<path d="M55.7124 32.4129C57.3739 32.4129 57.8332 33.0648 58.0896 33.0648C58.1602 33.0648 58.2134 32.9799 58.3018 32.9799C58.3988 32.9799 58.3988 33.1151 58.4255 33.6653C58.4431 34.1137 58.5226 34.3928 58.3724 34.3928C58.2664 34.3928 58.2045 34.1727 58.1691 34.1137C57.6213 33.2082 56.9937 32.6585 55.8537 32.6585C54.1305 32.6585 53.2997 33.7583 53.2997 35.332C53.2997 36.8044 54.1836 38.2764 55.8804 38.2764C57.2677 38.2764 58.1338 37.4303 58.2664 37.0414C58.284 36.9819 58.3371 36.931 58.3899 36.931C58.4341 36.931 58.4783 36.9819 58.4697 37.0241L58.2664 37.8701C58.2575 37.9042 57.63 38.5387 55.6418 38.5387C53.8299 38.5387 52.531 37.3459 52.531 35.5943C52.531 33.8432 53.8477 32.4129 55.7124 32.4129Z" fill="white"/>
<path d="M59.2642 35.4504C59.2642 33.6907 60.6957 32.4129 62.5073 32.4129C64.3103 32.4129 65.6976 33.6566 65.6976 35.4082C65.6976 37.3118 64.3278 38.5387 62.3571 38.5387C60.4394 38.5387 59.2642 37.2356 59.2642 35.4504ZM59.9093 35.2053C59.9093 36.7704 60.9785 38.285 62.7284 38.285C64.0186 38.285 65.0524 37.2951 65.0524 35.7295C65.0524 34.19 63.9655 32.6921 62.2423 32.6921C60.7577 32.6921 59.9093 33.8681 59.9093 35.2053Z" fill="white"/>
<path d="M67.6939 37.4389C67.6939 37.9382 67.6233 38.1411 68.3657 38.1411C70.407 38.1411 70.7075 37.2696 70.8224 37.2696C70.8841 37.2696 70.893 37.354 70.893 37.3713C70.893 37.6759 70.6633 37.9718 70.4512 38.192C70.1684 38.4965 69.974 38.4798 69.5853 38.4798C68.9135 38.4798 68.2419 38.4289 67.5701 38.4457C67.2167 38.4543 66.8455 38.4798 66.4921 38.4798C66.4126 38.4798 66.3594 38.4625 66.3594 38.3949C66.3772 38.2932 66.4656 38.3105 66.7484 38.1752C66.9781 38.0735 66.9959 37.8366 66.9959 37.4389V33.1492C66.9959 32.7093 66.2535 32.7683 66.2535 32.599C66.2535 32.506 66.3155 32.4892 66.4303 32.4892C66.6158 32.4892 66.8897 32.5233 67.3229 32.5233C67.8265 32.5233 68.0387 32.4892 68.1713 32.4892C68.2862 32.4892 68.339 32.506 68.339 32.6077C68.339 32.8024 67.6939 32.5909 67.6939 33.3266V37.4389Z" fill="white"/>
<path d="M72.9605 37.4389C72.9605 37.9382 72.8899 38.1411 73.6323 38.1411C75.6736 38.1411 75.9742 37.2696 76.089 37.2696C76.1508 37.2696 76.1596 37.354 76.1596 37.3713C76.1596 37.6759 75.9299 37.9718 75.7178 38.192C75.435 38.4965 75.2406 38.4798 74.8519 38.4798C74.1801 38.4798 73.5085 38.4289 72.8368 38.4457C72.4833 38.4543 72.1121 38.4798 71.7587 38.4798C71.6792 38.4798 71.626 38.4625 71.626 38.3949C71.6438 38.2932 71.7322 38.3105 72.0151 38.1752C72.2447 38.0735 72.2625 37.8366 72.2625 37.4389V33.1492C72.2625 32.7093 71.5201 32.7683 71.5201 32.599C71.5201 32.506 71.5821 32.4892 71.697 32.4892C71.8824 32.4892 72.1563 32.5233 72.5895 32.5233C73.0931 32.5233 73.3053 32.4892 73.4379 32.4892C73.5528 32.4892 73.6056 32.506 73.6056 32.6077C73.6056 32.8024 72.9605 32.5909 72.9605 33.3266V37.4389Z" fill="white"/>
<path d="M78.068 34.9511C78.068 35.2389 78.0502 35.2389 78.4039 35.2389H79.3583C80.2773 35.2389 80.0387 34.5621 80.2508 34.5621C80.3215 34.5621 80.3482 34.6552 80.3482 34.7228C80.3482 35.0193 80.3304 35.3065 80.3304 35.5775C80.3304 35.7972 80.3482 36.0173 80.3482 36.2456C80.3482 36.3219 80.3126 36.356 80.2508 36.356C79.977 36.356 80.2773 35.6111 79.5351 35.6111H78.2271C78.0416 35.6111 78.068 35.755 78.068 35.8821V37.4389C78.068 37.9382 77.9974 38.1411 78.7396 38.1411C80.7811 38.1411 81.0814 37.2696 81.1965 37.2696C81.2583 37.2696 81.2672 37.354 81.2672 37.3713C81.2672 37.6759 81.0372 37.9718 80.8254 38.192C80.5425 38.4965 80.3482 38.4798 79.9592 38.4798C79.2876 38.4798 78.6159 38.4289 77.9443 38.4457C77.5909 38.4543 77.2197 38.4798 76.8663 38.4798C76.7867 38.4798 76.7336 38.4625 76.7336 38.3949C76.7514 38.2932 76.8396 38.3105 77.1223 38.1752C77.3523 38.0735 77.3698 37.8366 77.3698 37.4389V33.5809C77.3698 33.2 77.3698 32.7938 76.8926 32.7262C76.822 32.7093 76.6277 32.692 76.6277 32.5909C76.6277 32.5233 76.6805 32.4892 76.9369 32.4892C78.6072 32.4892 79.0666 32.5233 79.4378 32.5233C79.6146 32.5233 80.4277 32.4892 80.7016 32.4892C80.7722 32.4892 80.79 32.5736 80.79 32.6753C80.79 33.6144 80.6663 33.682 80.6131 33.682C80.401 33.682 80.5425 33.2763 80.401 33.0816C80.1713 32.7938 79.2523 32.8446 78.8986 32.8446C78.0502 32.8446 78.068 32.8106 78.068 33.3774V34.9511Z" fill="white"/>
<path d="M88.0359 35.332C88.1065 35.332 88.2745 35.2984 88.2745 35.4082C88.2745 35.5857 87.8238 35.3914 87.8238 35.9584V37.684C86.9134 37.9632 86.6748 38.5387 85.1018 38.5387C83.1489 38.5387 81.9382 37.3795 81.9382 35.5013C81.9382 33.6739 83.3697 32.4129 85.2433 32.4129C86.7721 32.4129 87.214 32.9885 87.4614 32.9885C87.5585 32.9885 87.5941 32.836 87.6911 32.836C87.8149 32.836 87.7795 32.9631 87.7884 33.0307L87.8768 34.1391C87.8768 34.2067 87.868 34.2911 87.7795 34.2911C87.5499 34.2911 87.152 32.6585 85.0664 32.6585C83.4757 32.6585 82.6804 33.9444 82.6804 35.3406C82.6804 36.8379 83.5819 38.2682 85.2875 38.2682C86.0917 38.2682 87.1255 37.8874 87.1255 37.1679V35.8567C87.1255 35.4591 86.3567 35.6365 86.3567 35.425C86.3567 35.3151 86.4804 35.332 86.56 35.332H88.0359Z" fill="white"/>
<path d="M90.3859 34.9511C90.3859 35.2389 90.3681 35.2389 90.7218 35.2389H91.6761C92.5951 35.2389 92.3566 34.5621 92.5687 34.5621C92.6394 34.5621 92.666 34.6552 92.666 34.7228C92.666 35.0193 92.6483 35.3065 92.6483 35.5775C92.6483 35.7972 92.666 36.0173 92.666 36.2456C92.666 36.3219 92.6305 36.356 92.5687 36.356C92.2948 36.356 92.5951 35.6111 91.853 35.6111H90.545C90.3595 35.6111 90.3859 35.755 90.3859 35.8821V37.4389C90.3859 37.9382 90.3153 38.1411 91.0574 38.1411C93.099 38.1411 93.3993 37.2696 93.5144 37.2696C93.5762 37.2696 93.585 37.354 93.585 37.3713C93.585 37.6759 93.3551 37.9718 93.1432 38.192C92.8604 38.4965 92.666 38.4798 92.277 38.4798C91.6055 38.4798 90.9337 38.4289 90.2622 38.4457C89.9087 38.4543 89.5375 38.4798 89.1841 38.4798C89.1046 38.4798 89.0514 38.4625 89.0514 38.3949C89.0692 38.2932 89.1574 38.3105 89.4402 38.1752C89.6702 38.0735 89.6877 37.8366 89.6877 37.4389V33.5809C89.6877 33.2 89.6877 32.7938 89.2105 32.7262C89.1399 32.7093 88.9455 32.692 88.9455 32.5909C88.9455 32.5233 88.9984 32.4892 89.2548 32.4892C90.9251 32.4892 91.3844 32.5233 91.7556 32.5233C91.9325 32.5233 92.7456 32.4892 93.0194 32.4892C93.0901 32.4892 93.1079 32.5736 93.1079 32.6753C93.1079 33.6144 92.9842 33.682 92.931 33.682C92.7189 33.682 92.8604 33.2763 92.7189 33.0816C92.4892 32.7938 91.5702 32.8446 91.2165 32.8446C90.3681 32.8446 90.3859 32.8106 90.3859 33.3774V34.9511Z" fill="white"/>
<path d="M97.9496 33.2168C97.9408 32.599 97.1808 32.7683 97.1808 32.5822C97.1808 32.506 97.2517 32.4892 97.3223 32.4892C97.6493 32.4892 97.9674 32.5233 98.2944 32.5233C98.5683 32.5233 98.8423 32.4892 99.1161 32.4892C99.2666 32.4892 99.2841 32.5401 99.2841 32.5736C99.2841 32.7429 98.6479 32.5822 98.6479 33.2168V35.0441C98.6479 35.1626 98.6479 35.1967 98.7805 35.1967H102.015C102.103 35.1967 102.086 34.9852 102.086 34.9511V33.2168C102.086 32.6331 101.422 32.777 101.422 32.5822C101.422 32.5314 101.44 32.4892 101.573 32.4892C101.865 32.4892 102.324 32.5233 102.492 32.5233C102.819 32.5233 102.951 32.4892 103.128 32.4892C103.358 32.4892 103.375 32.5736 103.375 32.6245C103.375 32.777 102.783 32.6331 102.783 33.2168V37.7013C102.783 38.3186 103.588 38.1665 103.588 38.378C103.588 38.4035 103.552 38.4798 103.491 38.4798C103.252 38.4798 102.978 38.4457 102.66 38.4457C102.094 38.4457 101.847 38.4798 101.679 38.4798C101.599 38.4798 101.467 38.5047 101.467 38.3694C101.467 38.1665 102.086 38.285 102.086 37.7516V35.7214C102.086 35.5857 102.121 35.5099 102.015 35.5099H98.7539C98.6479 35.5099 98.6479 35.5607 98.6479 35.6538V37.7603C98.6479 38.3359 99.4874 38.1498 99.4874 38.4116C99.4874 38.4543 99.4256 38.4798 99.3461 38.4798C99.2312 38.4798 98.5861 38.4457 98.1176 38.4457C97.4903 38.4457 97.393 38.4798 97.3576 38.4798C97.287 38.4798 97.2603 38.437 97.2603 38.3526C97.2603 38.107 97.9496 38.3867 97.9496 37.5488V33.2168Z" fill="white"/>
<path d="M105.266 33.2168C105.257 32.599 104.55 32.7683 104.55 32.5822C104.55 32.506 104.567 32.4892 104.638 32.4892C104.965 32.4892 105.283 32.5233 105.61 32.5233C105.884 32.5233 106.158 32.4892 106.432 32.4892C106.574 32.4892 106.6 32.506 106.6 32.5736C106.6 32.777 105.964 32.5822 105.964 33.2168V37.7603C105.964 38.3359 106.751 38.1411 106.751 38.3949C106.751 38.4543 106.724 38.4798 106.574 38.4798C106.37 38.4798 105.99 38.4457 105.61 38.4457C105.071 38.4457 104.886 38.4798 104.762 38.4798C104.603 38.4798 104.577 38.437 104.577 38.3526C104.577 38.107 105.266 38.3867 105.266 37.5488V33.2168Z" fill="white"/>
<path d="M113.44 35.332C113.511 35.332 113.679 35.2984 113.679 35.4082C113.679 35.5857 113.228 35.3914 113.228 35.9584V37.684C112.318 37.9632 112.079 38.5387 110.506 38.5387C108.553 38.5387 107.343 37.3795 107.343 35.5013C107.343 33.6739 108.774 32.4129 110.648 32.4129C112.176 32.4129 112.618 32.9885 112.866 32.9885C112.963 32.9885 112.998 32.836 113.095 32.836C113.219 32.836 113.184 32.9631 113.193 33.0307L113.281 34.1391C113.281 34.2067 113.272 34.2911 113.184 34.2911C112.954 34.2911 112.556 32.6585 110.471 32.6585C108.88 32.6585 108.085 33.9444 108.085 35.3406C108.085 36.8379 108.986 38.2682 110.692 38.2682C111.496 38.2682 112.53 37.8874 112.53 37.1679V35.8567C112.53 35.4591 111.761 35.6365 111.761 35.425C111.761 35.3151 111.885 35.332 111.964 35.332H113.44Z" fill="white"/>
<path d="M114.994 33.2168C114.986 32.599 114.226 32.7683 114.226 32.5822C114.226 32.506 114.296 32.4892 114.367 32.4892C114.694 32.4892 115.012 32.5233 115.339 32.5233C115.613 32.5233 115.887 32.4892 116.161 32.4892C116.311 32.4892 116.329 32.5401 116.329 32.5736C116.329 32.7429 115.693 32.5822 115.693 33.2168V35.0441C115.693 35.1626 115.693 35.1967 115.825 35.1967H119.06C119.148 35.1967 119.13 34.9852 119.13 34.9511V33.2168C119.13 32.6331 118.468 32.777 118.468 32.5822C118.468 32.5314 118.485 32.4892 118.618 32.4892C118.909 32.4892 119.369 32.5233 119.537 32.5233C119.864 32.5233 119.996 32.4892 120.173 32.4892C120.403 32.4892 120.421 32.5736 120.421 32.6245C120.421 32.777 119.829 32.6331 119.829 33.2168V37.7013C119.829 38.3186 120.633 38.1665 120.633 38.378C120.633 38.4035 120.597 38.4798 120.535 38.4798C120.297 38.4798 120.023 38.4457 119.705 38.4457C119.139 38.4457 118.892 38.4798 118.724 38.4798C118.644 38.4798 118.512 38.5047 118.512 38.3694C118.512 38.1665 119.13 38.285 119.13 37.7516V35.7214C119.13 35.5857 119.166 35.5099 119.06 35.5099H115.799C115.693 35.5099 115.693 35.5607 115.693 35.6538V37.7603C115.693 38.3359 116.532 38.1498 116.532 38.4116C116.532 38.4543 116.47 38.4798 116.391 38.4798C116.276 38.4798 115.631 38.4457 115.163 38.4457C114.535 38.4457 114.438 38.4798 114.402 38.4798C114.332 38.4798 114.305 38.437 114.305 38.3526C114.305 38.107 114.994 38.3867 114.994 37.5488V33.2168Z" fill="white"/>
<path d="M124.449 36.9819C124.414 36.8125 124.458 36.7195 124.546 36.7195C124.67 36.7195 124.67 36.8212 124.714 36.9986C124.82 37.3881 125.351 38.2682 126.57 38.2682C127.41 38.2682 128.232 37.8198 128.232 36.931C128.232 35.2984 124.643 36.2121 124.643 34.0039C124.643 32.929 125.589 32.4129 126.605 32.4129C127.675 32.4129 127.966 32.7175 128.09 32.7175C128.17 32.7175 128.187 32.6245 128.276 32.6245C128.329 32.6245 128.373 32.6499 128.382 32.7429L128.514 33.8936C128.523 33.9611 128.505 34.0206 128.417 34.0206C128.32 34.0206 128.258 33.8432 128.232 33.7669C127.966 33.0393 127.322 32.6666 126.543 32.6666C125.845 32.6666 125.103 32.9885 125.103 33.7669C125.103 35.3574 128.691 34.4269 128.691 36.7622C128.691 37.4725 128.17 38.5387 126.163 38.5387C125.51 38.5387 124.705 38.2255 124.67 38.0735L124.449 36.9819Z" fill="white"/>
<path d="M132.809 32.4129C134.47 32.4129 134.93 33.0648 135.186 33.0648C135.257 33.0648 135.31 32.9799 135.398 32.9799C135.495 32.9799 135.495 33.1151 135.522 33.6653C135.539 34.1137 135.619 34.3928 135.469 34.3928C135.363 34.3928 135.301 34.1727 135.266 34.1137C134.718 33.2082 134.09 32.6585 132.95 32.6585C131.227 32.6585 130.396 33.7583 130.396 35.332C130.396 36.8044 131.28 38.2764 132.977 38.2764C134.364 38.2764 135.23 37.4303 135.363 37.0414C135.38 36.9819 135.433 36.931 135.487 36.931C135.531 36.931 135.575 36.9819 135.566 37.0241L135.363 37.8701C135.354 37.9042 134.726 38.5387 132.738 38.5387C130.926 38.5387 129.628 37.3459 129.628 35.5943C129.628 33.8432 130.944 32.4129 132.809 32.4129Z" fill="white"/>
<path d="M137.315 33.2168C137.306 32.599 136.546 32.7683 136.546 32.5822C136.546 32.506 136.617 32.4892 136.687 32.4892C137.015 32.4892 137.333 32.5233 137.66 32.5233C137.933 32.5233 138.208 32.4892 138.482 32.4892C138.632 32.4892 138.649 32.5401 138.649 32.5736C138.649 32.7429 138.013 32.5822 138.013 33.2168V35.0441C138.013 35.1626 138.013 35.1967 138.146 35.1967H141.38C141.469 35.1967 141.451 34.9852 141.451 34.9511V33.2168C141.451 32.6331 140.788 32.777 140.788 32.5822C140.788 32.5314 140.806 32.4892 140.938 32.4892C141.23 32.4892 141.69 32.5233 141.857 32.5233C142.184 32.5233 142.317 32.4892 142.494 32.4892C142.723 32.4892 142.741 32.5736 142.741 32.6245C142.741 32.777 142.149 32.6331 142.149 33.2168V37.7013C142.149 38.3186 142.953 38.1665 142.953 38.378C142.953 38.4035 142.918 38.4798 142.856 38.4798C142.618 38.4798 142.343 38.4457 142.025 38.4457C141.46 38.4457 141.212 38.4798 141.044 38.4798C140.965 38.4798 140.833 38.5047 140.833 38.3694C140.833 38.1665 141.451 38.285 141.451 37.7516V35.7214C141.451 35.5857 141.487 35.5099 141.38 35.5099H138.119C138.013 35.5099 138.013 35.5607 138.013 35.6538V37.7603C138.013 38.3359 138.853 38.1498 138.853 38.4116C138.853 38.4543 138.791 38.4798 138.711 38.4798C138.597 38.4798 137.951 38.4457 137.483 38.4457C136.856 38.4457 136.759 38.4798 136.723 38.4798C136.652 38.4798 136.626 38.437 136.626 38.3526C136.626 38.107 137.315 38.3867 137.315 37.5488V33.2168Z" fill="white"/>
<path d="M143.589 35.4504C143.589 33.6907 145.02 32.4129 146.832 32.4129C148.635 32.4129 150.022 33.6566 150.022 35.4082C150.022 37.3118 148.653 38.5387 146.681 38.5387C144.764 38.5387 143.589 37.2356 143.589 35.4504ZM144.234 35.2053C144.234 36.7704 145.303 38.285 147.053 38.285C148.343 38.285 149.377 37.2951 149.377 35.7295C149.377 34.19 148.29 32.6921 146.567 32.6921C145.082 32.6921 144.234 33.8681 144.234 35.2053Z" fill="white"/>
<path d="M150.994 35.4504C150.994 33.6907 152.425 32.4129 154.237 32.4129C156.04 32.4129 157.427 33.6566 157.427 35.4082C157.427 37.3118 156.058 38.5387 154.086 38.5387C152.169 38.5387 150.994 37.2356 150.994 35.4504ZM151.639 35.2053C151.639 36.7704 152.708 38.285 154.458 38.285C155.748 38.285 156.782 37.2951 156.782 35.7295C156.782 34.19 155.695 32.6921 153.972 32.6921C152.487 32.6921 151.639 33.8681 151.639 35.2053Z" fill="white"/>
<path d="M159.777 37.4389C159.777 37.9382 159.707 38.1411 160.449 38.1411C162.49 38.1411 162.791 37.2696 162.906 37.2696C162.968 37.2696 162.976 37.354 162.976 37.3713C162.976 37.6759 162.747 37.9718 162.535 38.192C162.252 38.4965 162.057 38.4798 161.668 38.4798C160.997 38.4798 160.325 38.4289 159.653 38.4457C159.3 38.4543 158.929 38.4798 158.576 38.4798C158.496 38.4798 158.443 38.4625 158.443 38.3949C158.46 38.2932 158.549 38.3105 158.832 38.1752C159.061 38.0735 159.079 37.8366 159.079 37.4389V33.1492C159.079 32.7093 158.337 32.7683 158.337 32.599C158.337 32.506 158.399 32.4892 158.514 32.4892C158.699 32.4892 158.973 32.5233 159.406 32.5233C159.91 32.5233 160.122 32.4892 160.255 32.4892C160.369 32.4892 160.422 32.506 160.422 32.6077C160.422 32.8024 159.777 32.5909 159.777 33.3266V37.4389Z" fill="white"/>
<path d="M173.456 34.9511C173.456 35.2389 173.438 35.2389 173.791 35.2389H174.746C175.665 35.2389 175.427 34.5621 175.639 34.5621C175.709 34.5621 175.736 34.6552 175.736 34.7228C175.736 35.0193 175.718 35.3065 175.718 35.5775C175.718 35.7972 175.736 36.0173 175.736 36.2456C175.736 36.3219 175.701 36.356 175.639 36.356C175.365 36.356 175.665 35.6111 174.923 35.6111H173.615C173.429 35.6111 173.456 35.755 173.456 35.8821V37.4389C173.456 37.9382 173.385 38.1411 174.127 38.1411C176.169 38.1411 176.47 37.2696 176.584 37.2696C176.646 37.2696 176.655 37.354 176.655 37.3713C176.655 37.6759 176.425 37.9718 176.213 38.192C175.93 38.4965 175.736 38.4798 175.347 38.4798C174.675 38.4798 174.004 38.4289 173.332 38.4457C172.978 38.4543 172.607 38.4798 172.254 38.4798C172.174 38.4798 172.122 38.4625 172.122 38.3949C172.139 38.2932 172.227 38.3105 172.51 38.1752C172.74 38.0735 172.758 37.8366 172.758 37.4389V33.5809C172.758 33.2 172.758 32.7938 172.281 32.7262C172.21 32.7093 172.015 32.692 172.015 32.5909C172.015 32.5233 172.068 32.4892 172.324 32.4892C173.995 32.4892 174.455 32.5233 174.826 32.5233C175.002 32.5233 175.815 32.4892 176.089 32.4892C176.16 32.4892 176.178 32.5736 176.178 32.6753C176.178 33.6144 176.054 33.682 176.001 33.682C175.789 33.682 175.93 33.2763 175.789 33.0816C175.559 32.7938 174.64 32.8446 174.286 32.8446C173.438 32.8446 173.456 32.8106 173.456 33.3774V34.9511Z" fill="white"/>
<path d="M177.282 35.8312C177.282 35.1545 177.83 34.8158 178.475 34.8158C178.625 34.8158 179.235 34.8835 179.341 35.0106C179.394 35.0783 179.385 35.366 179.385 35.425C179.385 35.6538 179.42 35.755 179.288 35.755C179.199 35.755 179.12 35.0193 178.316 35.0193C177.971 35.0193 177.697 35.2135 177.697 35.5607C177.697 35.8399 177.927 36.0173 178.855 36.3727C179.358 36.5756 179.589 36.8379 179.589 37.3795C179.589 38.014 179.049 38.5387 178.395 38.5387C177.777 38.5387 177.617 38.2932 177.406 38.2932C177.211 38.2932 177.211 38.285 177.211 37.6164C177.211 37.4725 177.184 37.202 177.317 37.202C177.512 37.202 177.414 38.3186 178.369 38.3186C178.802 38.3186 179.155 38.0649 179.155 37.6251C179.155 37.1766 178.705 37.0414 178.351 36.8802C177.874 36.6519 177.282 36.4322 177.282 35.8312Z" fill="white"/>
<path d="M180.985 35.273C180.569 35.273 180.507 35.273 180.507 35.2135C180.507 35.1458 180.728 35.002 181.179 34.5281C181.355 34.3252 181.444 34.1391 181.515 34.1391C181.639 34.1391 181.629 34.3166 181.629 34.9262H182.601C182.823 34.9262 182.92 34.7823 182.946 34.7823C182.99 34.7823 183.008 34.8245 183.008 34.8499C183.008 34.8835 182.982 34.9262 182.955 34.9684L182.778 35.273H181.629V37.7349C181.647 38.0816 181.895 38.2428 182.248 38.2428C182.716 38.2428 182.849 38.0481 182.999 38.0481C183.034 38.0481 183.07 38.0567 183.07 38.1243C183.07 38.2509 182.593 38.5387 181.974 38.5387C181.567 38.5387 180.985 38.4289 180.985 37.5574V35.273Z" fill="white"/>
<path d="M186.365 33.8259C186.365 33.5132 186.383 33.293 186.047 33.293C185.906 33.293 185.587 33.4283 185.517 33.4283C185.482 33.4283 185.428 33.3948 185.428 33.3439C185.428 33.1914 185.605 33.1914 186.065 33.0139C186.595 32.8106 186.949 32.4892 186.984 32.4892C187.055 32.4892 187.072 32.5568 187.072 32.6163C187.072 32.7602 187.01 32.87 187.01 33.1746V37.5828C187.01 38.5555 187.982 38.0989 187.982 38.3867C187.982 38.4798 187.815 38.4798 187.673 38.4798C187.39 38.4798 187.099 38.4457 186.763 38.4457C186.436 38.4457 185.941 38.4798 185.694 38.4798C185.579 38.4798 185.508 38.4711 185.508 38.378C185.508 38.1411 186.365 38.4543 186.365 37.7181V33.8259Z" fill="white"/>
<path d="M189.042 33.9784C189.042 33.1324 189.785 32.4892 190.651 32.4892C191.561 32.4892 192.18 32.9544 192.18 33.86C192.18 34.435 191.703 34.8921 191.181 35.1123C191.915 35.425 192.401 35.9584 192.401 36.7535C192.401 37.8111 191.606 38.5387 190.51 38.5387C189.582 38.5387 188.778 37.8955 188.778 36.8466C188.778 36.0936 189.237 35.5607 189.918 35.2307C189.405 35.0106 189.042 34.52 189.042 33.9784ZM191.897 37.0159C191.897 35.9665 190.262 35.3995 190.191 35.3995C189.82 35.3995 189.211 36.0092 189.211 36.7027C189.211 37.4303 189.785 38.2932 190.616 38.2932C191.42 38.2932 191.897 37.7603 191.897 37.0159ZM191.756 33.86C191.756 33.2168 191.252 32.7262 190.572 32.7262C189.97 32.7262 189.52 33.1237 189.52 33.7074C189.52 34.4523 190.262 34.8921 190.837 34.8921C191.411 34.8921 191.756 34.4523 191.756 33.86Z" fill="white"/>
<path d="M193.788 34.5789C194.027 34.5281 194.265 34.4859 194.513 34.4859C195.582 34.4859 196.315 35.1626 196.315 36.1867C196.315 36.9905 195.829 38.4965 194.018 38.4965C193.249 38.4965 192.878 38.2509 192.878 38.1752C192.878 38.1325 192.887 38.0903 192.948 38.0903C193.019 38.0903 193.249 38.2682 193.815 38.2682C194.778 38.2682 195.653 37.6332 195.653 36.4571C195.653 35.9584 195.52 35.0614 194.186 35.0614C193.947 35.0614 193.656 35.1377 193.514 35.1377C193.461 35.1377 193.408 35.095 193.417 35.0441L193.823 32.929C193.876 32.6585 193.867 32.5401 194.212 32.5233H195.697C196.13 32.5233 196.165 32.2436 196.28 32.2436C196.315 32.2436 196.351 32.2523 196.351 32.2945C196.351 32.3708 196.095 32.9122 196.024 33.022C195.927 33.1746 195.794 33.1405 195.467 33.1405H194.495C194.256 33.1405 194.079 33.1405 194.036 33.3693L193.788 34.5789Z" fill="white"/>
<path d="M198.383 33.8259C198.383 33.5132 198.401 33.293 198.065 33.293C197.923 33.293 197.605 33.4283 197.534 33.4283C197.499 33.4283 197.446 33.3948 197.446 33.3439C197.446 33.1914 197.623 33.1914 198.083 33.0139C198.613 32.8106 198.966 32.4892 199.001 32.4892C199.072 32.4892 199.09 32.5568 199.09 32.6163C199.09 32.7602 199.028 32.87 199.028 33.1746V37.5828C199.028 38.5555 200 38.0989 200 38.3867C200 38.4798 199.832 38.4798 199.691 38.4798C199.408 38.4798 199.116 38.4457 198.78 38.4457C198.454 38.4457 197.959 38.4798 197.711 38.4798C197.596 38.4798 197.526 38.4711 197.526 38.378C197.526 38.1411 198.383 38.4543 198.383 37.7181V33.8259Z" fill="white"/>
<path d="M167.526 31.0325H167.227V40H167.526V31.0325Z" fill="white"/>
<path d="M30.5132 32.7094C26.2053 35.8562 23.6414 36.9298 21.9234 36.9298C20.2055 36.9298 17.6416 35.8562 13.3337 32.7094C9.02569 29.5626 6.32984 25.9154 6.32984 25.9154C4.69095 25.9272 3.7396 25.6752 3.7396 25.6752C3.7396 25.6752 5.95676 29.5932 12.3558 34.5081C17.531 38.4826 20.6331 38.9324 21.596 38.9614C21.8182 38.968 22.0402 38.9707 22.3005 38.9595C23.3254 38.9146 26.4125 38.4084 31.4913 34.5081C37.8902 29.5932 40.1071 25.6752 40.1071 25.6752C40.1071 25.6752 38.9187 26.087 37.2142 26.2457C37.2142 26.2457 34.8212 29.5626 30.5132 32.7094Z" fill="white"/>
<path d="M4.77002 5.89V3.62294C4.77002 3.62294 15.2611 1.98341 21.9213 1.98341C28.5815 1.98341 38.8525 3.62294 38.8525 3.62294V5.62331C39.762 5.66566 40.9587 5.92857 40.9587 5.92857L40.9669 1.90431C40.9669 1.90431 29.031 0 21.9213 0C14.8116 0 2.65564 1.90431 2.65564 1.90431V6.69078C2.65564 6.69078 3.43823 6.20954 4.77054 5.89038L4.77002 5.89Z" fill="white"/>
<path d="M42.656 20.5546L42.3273 20.8592C40.677 22.3451 38.6972 23.5008 36.9646 23.5008C35.232 23.5008 33.7884 22.6754 33.0664 21.8706C32.3448 21.0658 31.2307 18.8368 31.2307 16.1334C31.2307 13.43 31.7465 11.4282 32.6333 10.0869C33.5204 8.74554 35.0878 8.00245 36.7174 8.00245C38.3469 8.00245 39.316 8.43584 40.2854 9.36451C41.2548 10.2931 41.9355 12.3912 41.9355 12.3912H43.0285V7.9199C41.915 7.34209 39.2747 6.82611 36.6966 6.82611C34.1184 6.82611 30.6119 7.4452 28.5424 9.61899C28.1401 10.0417 27.8081 10.4693 27.5306 10.9073H15.6565V7.96758C13.8371 7.24949 11.634 6.83198 8.64609 6.83198C5.65822 6.83198 0.333946 8.10026 0.333946 11.6574C0.333946 15.0489 4.45169 16.2629 6.48808 16.9142C8.52445 17.5655 12.0079 18.4007 12.0079 20.8389C12.0079 23.1772 8.99445 23.4048 7.89274 23.4048C6.84124 23.4048 5.04761 23.0767 3.57885 21.8075C2.11008 20.5383 1.33537 18.6893 1.33537 18.6893L0 18.6728L0.539035 23.0818C0.539035 23.0818 3.16425 24.6134 7.91169 24.635C16.6077 24.6745 17.2589 20.8106 17.2589 19.3742C17.2589 17.9377 16.4077 15.6668 12.118 14.3974C7.82825 13.1281 7.32058 12.7614 6.44291 12.2597C5.46862 11.7028 4.72367 9.9383 6.30942 8.76931C7.89514 7.60032 10.1638 7.87244 11.9245 8.74273C13.904 9.72121 14.3713 12.0061 14.3713 12.0061H17.3922C18.8946 12.0061 19.4789 12.5609 19.4789 13.6129V26.2719C19.4789 27.2739 19.2526 29.8118 17.1251 30.6141C17.106 30.5057 17.0598 30.3558 16.9893 30.1845C16.6905 29.4578 15.9485 28.3428 14.922 28.3428C13.6534 28.3428 13.2529 29.495 13.2529 29.9128C13.2529 30.2811 13.2943 31.3501 14.897 31.5969C15.1108 31.63 15.3501 31.6494 15.6231 31.6494C16.1078 31.6587 16.2333 31.6585 16.4952 31.6357C22.0783 31.1523 24.2526 27.7644 24.2526 24.6855V13.6128C24.2526 12.3602 25.2372 12.0029 25.8549 12.0029H26.9616C26.4643 13.2049 26.3012 14.5181 26.3012 16.0646C26.3012 18.6856 27.2088 20.7767 28.529 22.0563C29.8489 23.3359 32.3032 24.6358 36.2634 24.6358C40.2234 24.6358 42.7813 22.18 43.0698 21.8706L43.5221 21.3755L42.656 20.5546Z" fill="white"/>
</svg>
