<svg xmlns="http://www.w3.org/2000/svg" width="210.481" height="120.01" viewBox="0 0 210.481 120.01"><path d="M-2685.443,3021.323a22.861,22.861,0,0,1-3.511-.254c-7.751-1.195-7.952-6.36-7.952-8.141a8.043,8.043,0,0,1,8.073-7.586c4.962,0,8.551,5.388,10,8.9a10.674,10.674,0,0,1,.655,2.078c10.29-3.878,11.383-16.146,11.383-20.989v-61.186c0-5.087-2.824-7.768-10.092-7.768H-2691.5s-2.261-11.043-11.834-15.772c-8.515-4.207-19.486-5.522-27.154.128s-4.067,14.177.646,16.87c4.242,2.426,6.7,4.2,27.447,10.334s24.861,17.11,24.861,24.053-3.15,25.62-45.2,25.429c-22.96-.1-35.656-7.508-35.656-7.508L-2761,2958.6l6.458.08s3.747,8.938,10.849,15.072a33.023,33.023,0,0,0,20.864,7.721c5.327,0,19.9-1.1,19.9-12.4,0-11.785-16.845-15.823-26.694-18.969s-29.762-9.017-29.762-25.41c0-17.194,25.748-23.323,40.2-23.323s25.1,2.019,33.9,5.487v14.209h57.427a40.07,40.07,0,0,1,4.893-6.225c10.008-10.508,26.965-13.5,39.433-13.5s25.238,2.492,30.624,5.287v21.612h-5.287s-3.291-10.143-7.979-14.63-9.375-6.584-17.255-6.584-15.462,3.591-19.753,10.075-6.781,16.159-6.781,29.227,5.387,23.841,8.877,27.731,10.473,7.878,18.853,7.878,17.954-5.585,25.933-12.768l1.59-1.474,4.188,3.969-2.186,2.393a48.188,48.188,0,0,1-32.918,13.365c-19.15,0-31.022-6.282-37.405-12.468s-10.774-16.292-10.774-28.963c0-7.474.79-13.821,3.194-19.632h-5.351c-2.99,0-7.75,1.727-7.75,7.781v53.522c0,14.88-10.517,31.256-37.517,33.593-.777.068-1.305.094-2.14.094C-2683.892,3021.35-2684.539,3021.34-2685.443,3021.323Zm69.1-45.646-.281-.187Zm-48.8-48c-.022-.028-.044-.055-.07-.083C-2665.193,2927.622-2665.172,2927.649-2665.148,2927.676Zm25.719-3.2.012,0Zm-92.385-16.01-.031.026c.033-.022.059-.045.089-.066Z" transform="translate(2761 -2901.34)" fill="#fff"/></svg>